HIERARCHY
ROOT root
{
	OFFSET 0.000000 0.000000 0.000000
	CHANNELS 6 Xposition Yposition Zposition Zrotation Yrotation Xrotation
	JOINT lhip
	{
		OFFSET 0.058581 -0.082280 -0.017664
		CHANNELS 3 Zrotation Yrotation Xrotation
		JOINT lknee
		{
			OFFSET 0.043451 -0.386469 0.008037
			CHANNELS 3 Zrotation Yrotation Xrotation
			JOINT lankle
			{
				OFFSET -0.014790 -0.426874 -0.037428
				CHANNELS 3 Zrotation Yrotation Xrotation
				JOINT ltoe
				{
					OFFSET 0.041054 -0.060286 0.122042
					CHANNELS 3 Zrotation Yrotation Xrotation
					End Site
					{
						OFFSET 0.000000 0.000000 0.000000
					}
				}
			}
		}
	}
	JOINT rhip
	{
		OFFSET -0.060310 -0.090513 -0.013543
		CHANNELS 3 Zrotation Yrotation Xrotation
		JOINT rknee
		{
			OFFSET -0.043257 -0.383688 -0.004843
			CHANNELS 3 Zrotation Yrotation Xrotation
			JOINT rankle
			{
				OFFSET 0.019056 -0.420046 -0.034562
				CHANNELS 3 Zrotation Yrotation Xrotation
				JOINT rtoe
				{
					OFFSET -0.034840 -0.062106 0.130323
					CHANNELS 3 Zrotation Yrotation Xrotation
					End Site
					{
						OFFSET 0.000000 0.000000 0.000000
					}
				}
			}
		}
	}
	JOINT lowerback
	{
		OFFSET 0.004439 0.124404 -0.038385
		CHANNELS 3 Zrotation Yrotation Xrotation
		JOINT upperback
		{
			OFFSET 0.004488 0.137956 0.026820
			CHANNELS 3 Zrotation Yrotation Xrotation
			JOINT chest
			{
				OFFSET -0.002265 0.056032 0.002855
				CHANNELS 3 Zrotation Yrotation Xrotation
				JOINT lowerneck
				{
					OFFSET -0.013390 0.211636 -0.033468
					CHANNELS 3 Zrotation Yrotation Xrotation
					JOINT upperneck
					{
						OFFSET 0.010113 0.088937 0.050410
						CHANNELS 3 Zrotation Yrotation Xrotation
						End Site
						{
							OFFSET 0.000000 0.000000 0.000000
						}
					}
				}
				JOINT lclavicle
				{
					OFFSET 0.071702 0.114000 -0.018898
					CHANNELS 3 Zrotation Yrotation Xrotation
					JOINT lshoulder
					{
						OFFSET 0.122921 0.045205 -0.019046
						CHANNELS 3 Zrotation Yrotation Xrotation
						JOINT lelbow
						{
							OFFSET 0.255332 -0.015649 -0.022946
							CHANNELS 3 Zrotation Yrotation Xrotation
							JOINT lwrist
							{
								OFFSET 0.265709 0.012698 -0.007375
								CHANNELS 3 Zrotation Yrotation Xrotation
								End Site
								{
									OFFSET 0.000000 0.000000 0.000000
								}
							}
						}
					}
				}
				JOINT rclavicle
				{
					OFFSET -0.082954 0.112472 -0.023707
					CHANNELS 3 Zrotation Yrotation Xrotation
					JOINT rshoulder
					{
						OFFSET -0.113228 0.046853 -0.008472
						CHANNELS 3 Zrotation Yrotation Xrotation
						JOINT relbow
						{
							OFFSET -0.260127 -0.014369 -0.031269
							CHANNELS 3 Zrotation Yrotation Xrotation
							JOINT rwrist
							{
								OFFSET -0.269108 0.006794 -0.006027
								CHANNELS 3 Zrotation Yrotation Xrotation
								End Site
								{
									OFFSET 0.000000 0.000000 0.000000
								}
							}
						}
					}
				}
			}
		}
	}
}
MOTION
Frames: 5
Frame Time: 0.033333
0.507101 0.188627 0.997116 97.237633 3.854695 98.221394 7.751284 4.453369 -9.751892 4.021281 -4.811608 -2.011595 -4.263327 11.211153 -2.949595 0.000000 -0.000000 0.000000 -0.490876 -3.215686 -9.694668 -1.949742 2.641306 5.457305 5.081537 -9.342671 -6.917932 0.000000 -0.000000 0.000000 0.699250 3.119181 -0.041682 0.886488 0.382248 -1.582021 0.106999 4.563277 -8.774146 5.474488 -13.981913 -6.045880 5.647547 -5.174088 -6.237740 -20.373735 -5.306171 -7.318471 -54.997782 -5.321595 11.264608 24.897811 -31.715438 3.701351 20.750354 -13.846521 11.834273 16.075652 17.143830 -1.589307 8.110211 41.822686 -18.066754 -23.832078 5.907064 16.274692 -27.139537 32.976720 47.951360 
0.509474 0.188714 0.996476 98.050940 3.915577 98.132482 7.968073 4.273290 -9.616326 3.897103 -5.469063 -1.996343 -3.982496 11.242330 -3.106084 0.000000 -0.000000 0.000000 -0.322288 -3.521914 -9.110703 -1.973666 2.550344 5.142324 4.816728 -9.859680 -6.911855 0.000000 -0.000000 0.000000 0.105774 3.174382 -0.368707 1.375213 0.128728 -1.409829 0.295353 3.742800 -8.328171 5.594938 -13.768747 -6.789240 5.642162 -5.287339 -6.675415 -21.316516 -2.522462 -7.132566 -53.160313 -3.114714 9.987180 24.370509 -32.214068 2.026029 17.138485 -12.744283 11.522875 18.529379 14.446691 -1.526568 7.514071 39.474185 -18.723923 -24.785856 3.348333 13.908024 -25.551864 28.984429 51.571412 
0.511695 0.188110 0.995579 98.018413 3.942801 98.215510 8.202189 4.105710 -9.578609 3.750407 -5.074058 -1.820461 -3.610698 11.013010 -3.159534 0.000000 -0.000000 0.000000 -0.287516 -3.488448 -9.041667 -1.969228 2.147989 5.126528 4.913766 -9.563300 -6.998601 0.000000 -0.000000 0.000000 -0.661125 3.125231 -1.061751 2.068010 -0.246448 -0.857440 0.408538 3.006323 -8.110757 5.488928 -12.379379 -7.114700 5.506339 -5.874861 -7.224629 -21.177163 0.741221 -6.742748 -52.520861 -0.588163 8.249309 24.570624 -32.846069 -0.829330 11.239546 -11.351077 9.941343 21.123291 11.629301 -1.537537 9.323356 37.029798 -17.740885 -26.509140 4.576665 11.324656 -22.492321 27.279920 55.876871 
0.514144 0.187151 0.993550 97.341973 4.039740 98.135303 8.434298 4.337018 -9.216686 3.633456 -5.089740 -1.820053 -3.086856 11.424678 -3.140741 0.000000 -0.000000 0.000000 -0.240471 -3.356102 -9.027016 -1.855641 2.474776 5.211777 5.145776 -9.679680 -6.988818 0.000000 -0.000000 0.000000 -1.678395 2.631647 -1.753145 2.960407 -0.641832 -1.130458 1.006778 2.923363 -6.530659 4.557681 -11.414839 -6.892086 5.774599 -4.818941 -8.444741 -21.213637 3.534871 -6.224427 -52.376488 1.860029 7.457686 24.618500 -33.229413 -4.337869 9.039546 -7.764737 5.172980 22.359127 7.674662 -2.140797 14.148479 32.821466 -12.634437 -24.903164 13.926433 10.768750 -27.598903 21.962902 51.144576 
0.517396 0.185821 0.992720 96.493572 4.066843 98.027137 8.555690 4.478416 -8.498327 3.635863 -4.742412 -2.233084 -2.657574 11.595743 -2.800090 0.000000 -0.000000 0.000000 -0.254330 -3.059113 -8.823396 -1.807020 2.805453 5.082528 5.471491 -9.532726 -7.114785 0.000000 -0.000000 0.000000 -1.907042 2.853985 -1.779157 3.394595 -0.659622 -1.419757 0.655299 2.704288 -6.373244 3.395792 -11.238783 -7.320612 6.198552 -4.794188 -8.155345 -20.990206 5.189249 -4.246475 -52.469611 3.811556 6.179704 24.146580 -32.879148 -7.431666 10.003133 -5.389103 -1.996095 26.042362 4.153843 -2.224978 18.192867 29.327333 -12.063097 -26.097932 21.462913 9.721972 -28.794918 22.712289 54.343354 
